<?xml version="1.0" encoding="utf-8"?>
<!-- Generator: Adobe Illustrator 19.2.1, SVG Export Plug-In . SVG Version: 6.00 Build 0)  -->
<svg version="1.1" id="Layer_1" xmlns="http://www.w3.org/2000/svg" xmlns:xlink="http://www.w3.org/1999/xlink" x="0px" y="0px"
	 viewBox="0 0 150 150" style="enable-background:new 0 0 150 150;" xml:space="preserve">
<style type="text/css">
	.st0{fill:url(#SVGID_1_);}
	.st1{fill:url(#SVGID_2_);}
	.st2{fill:url(#SVGID_3_);}
	.st3{fill:url(#SVGID_4_);}
	.st4{fill:url(#SVGID_5_);}
	.st5{fill:url(#SVGID_6_);}
</style>
<g>
	<linearGradient id="SVGID_1_" gradientUnits="userSpaceOnUse" x1="71.3978" y1="131.1722" x2="80.2817" y2="122.2884">
		<stop  offset="0.3214" style="stop-color:#5E2D90"/>
		<stop  offset="0.4229" style="stop-color:#4F3D8C"/>
		<stop  offset="0.5594" style="stop-color:#3B4B8A"/>
		<stop  offset="0.6991" style="stop-color:#275388"/>
		<stop  offset="0.8425" style="stop-color:#145787"/>
		<stop  offset="0.9952" style="stop-color:#095987"/>
	</linearGradient>
	<path class="st0" d="M75.8,120.5L75.8,120.5c-3.5,0-6.2,2.9-6.2,6.2c0,3.5,2.7,6.2,6.2,6.2l0,0c3.5,0,6.2-2.9,6.2-6.2
		C82.1,123.2,79.4,120.5,75.8,120.5z M79.2,126.7c0,1.8-1.4,3.3-3.3,3.3l0,0c-1.8,0-3.3-1.4-3.3-3.3c0-1.8,1.4-3.3,3.3-3.3l0,0
		C77.6,123.4,79.2,124.8,79.2,126.7L79.2,126.7z"/>
	<g>
		<linearGradient id="SVGID_2_" gradientUnits="userSpaceOnUse" x1="24.5624" y1="125.5832" x2="127.1171" y2="23.0286">
			<stop  offset="0.3214" style="stop-color:#5E2D90"/>
			<stop  offset="0.4229" style="stop-color:#4F3D8C"/>
			<stop  offset="0.5594" style="stop-color:#3B4B8A"/>
			<stop  offset="0.6991" style="stop-color:#275388"/>
			<stop  offset="0.8425" style="stop-color:#145787"/>
			<stop  offset="0.9952" style="stop-color:#095987"/>
		</linearGradient>
		<path class="st1" d="M112,10.4H39.7c-3.3,0-5.9,2.5-5.9,5.9v116.2c0,3.3,2.5,5.9,5.9,5.9H112c3.3,0,5.9-2.5,5.9-5.9V16.2
			C117.8,12.9,115.3,10.4,112,10.4z M114.9,132.4c0,1.6-1.4,2.9-2.9,2.9H39.7c-1.6,0-2.9-1.4-2.9-2.9V16.2c0-1.6,1.4-2.9,2.9-2.9
			H112c1.6,0,2.9,1.4,2.9,2.9V132.4z"/>
		<linearGradient id="SVGID_3_" gradientUnits="userSpaceOnUse" x1="37.2404" y1="110.4646" x2="114.2595" y2="33.4455">
			<stop  offset="0.3214" style="stop-color:#5E2D90"/>
			<stop  offset="0.4229" style="stop-color:#4F3D8C"/>
			<stop  offset="0.5594" style="stop-color:#3B4B8A"/>
			<stop  offset="0.6991" style="stop-color:#275388"/>
			<stop  offset="0.8425" style="stop-color:#145787"/>
			<stop  offset="0.9952" style="stop-color:#095987"/>
		</linearGradient>
		<path class="st2" d="M106.5,26.2H45.2c-0.8,0-1.6,0.6-1.6,1.6v88.4c0,0.8,0.6,1.6,1.6,1.6h61.1c0.8,0,1.6-0.6,1.6-1.6V27.7
			C107.9,27,107.3,26.2,106.5,26.2z M104.9,114.6H46.7V29.1h58.2V114.6z"/>
		<linearGradient id="SVGID_4_" gradientUnits="userSpaceOnUse" x1="64.3312" y1="21.7727" x2="68.0542" y2="18.0497">
			<stop  offset="0.3214" style="stop-color:#5E2D90"/>
			<stop  offset="0.4229" style="stop-color:#4F3D8C"/>
			<stop  offset="0.5594" style="stop-color:#3B4B8A"/>
			<stop  offset="0.6991" style="stop-color:#275388"/>
			<stop  offset="0.8425" style="stop-color:#145787"/>
			<stop  offset="0.9952" style="stop-color:#095987"/>
		</linearGradient>
		<path class="st3" d="M64.7,21.5h2.9c0.8,0,1.6-0.6,1.6-1.6c0-1-0.6-1.6-1.6-1.6h-2.9c-0.8,0-1.6,0.6-1.6,1.6
			C63.1,20.9,63.9,21.5,64.7,21.5z"/>
		<linearGradient id="SVGID_5_" gradientUnits="userSpaceOnUse" x1="75.1676" y1="24.6038" x2="84.5527" y2="15.2186">
			<stop  offset="0.3214" style="stop-color:#5E2D90"/>
			<stop  offset="0.4229" style="stop-color:#4F3D8C"/>
			<stop  offset="0.5594" style="stop-color:#3B4B8A"/>
			<stop  offset="0.6991" style="stop-color:#275388"/>
			<stop  offset="0.8425" style="stop-color:#145787"/>
			<stop  offset="0.9952" style="stop-color:#095987"/>
		</linearGradient>
		<path class="st4" d="M72.7,21.5H87c0.8,0,1.6-0.6,1.6-1.6c0-1-0.6-1.6-1.6-1.6H72.7c-0.8,0-1.6,0.6-1.6,1.6
			C71.2,20.9,71.9,21.5,72.7,21.5z"/>
		<g id="surface1">
			<linearGradient id="SVGID_6_" gradientUnits="userSpaceOnUse" x1="59.8082" y1="88.453" x2="92.7863" y2="55.4749">
				<stop  offset="0.3214" style="stop-color:#5E2D90"/>
				<stop  offset="0.4229" style="stop-color:#4F3D8C"/>
				<stop  offset="0.5594" style="stop-color:#3B4B8A"/>
				<stop  offset="0.6991" style="stop-color:#275388"/>
				<stop  offset="0.8425" style="stop-color:#145787"/>
				<stop  offset="0.9952" style="stop-color:#095987"/>
			</linearGradient>
			<path class="st5" d="M75.9,48.7c-9.5,0.2-18.3,6.2-21.6,15.7c-2,5.9-1.7,12.2,1.1,17.8c2.7,5.6,7.5,9.8,13.3,11.8
				c2.5,0.9,5.1,1.3,7.6,1.3c9.7,0,18.7-6.1,22-15.7c2-5.9,1.7-12.2-1.1-17.8c-2.7-5.6-7.5-9.8-13.3-11.8
				C81.3,49,78.6,48.6,75.9,48.7z M75.9,50.3c2.5,0,5,0.3,7.5,1.2c5.5,1.9,9.9,5.8,12.4,11c2.5,5.2,2.9,11.1,1,16.6
				c-3.9,11.3-16.3,17.3-27.6,13.4c-5.5-1.9-9.9-5.8-12.4-11c-2.5-5.2-2.9-11.1-1-16.6C58.8,56,67.1,50.4,75.9,50.3z M76.7,52.7
				c-2.9-0.1-5.8,0.6-8.4,1.8c-0.4,0.2-0.6,0.7-0.4,1.1c0.2,0.4,0.7,0.6,1.1,0.4c4.9-2.4,10.6-2.2,15.4,0.3c0.1,0.1,0.2,0.1,0.4,0.1
				c0.3,0,0.6-0.2,0.7-0.4c0.2-0.4,0.1-0.9-0.3-1.1C82.4,53.5,79.6,52.7,76.7,52.7z M76,56.3c-0.7,0-1.3,0.3-1.7,0.9
				c-0.4,0.6-0.4,1.3-0.2,1.9l2,4.7l-0.8-0.4C75,63.1,74.6,63,74.2,63c-0.8,0-1.5,0.4-1.9,1.1l-2.4,4.2l-0.7,1.3h-7.3
				c-0.4,0-0.8,0.4-0.8,0.8v4.8c0,0.4,0.4,0.8,0.8,0.8h3.7l-1.2,2.1c-0.3,0.4-0.4,1-0.4,1.5L63.8,82c0,0.6,0.3,1.1,0.7,1.4
				c0.3,0.2,0.6,0.3,0.9,0.3c0.2,0,0.5-0.1,0.7-0.2l2.2-1.1c0.6-0.3,1.1-0.7,1.4-1.3l2.9-5.1h8.6l0.3,0.7c0.4,0.8,1.1,1.4,2,1.5
				c-0.1,0.1-0.1,0.2-0.1,0.3c-0.3,0.8-0.2,1.7,0.2,2.5c0.7,1.4,1.7,1.7,2.3,1.9c0.4,0.1,0.5,0.1,0.8,0.8c0.3,0.6,0.9,0.9,1.4,0.9
				c0.2,0,0.5-0.1,0.7-0.2c0.6-0.3,1.5-1.1,1.4-3.1c-0.1-1-0.4-2.1-0.9-3.1c-0.4-0.9-1.2-1.5-2.2-1.7c0.1-0.1,0.1-0.2,0.2-0.4h3.5
				c0.4,0,0.8-0.4,0.8-0.8v-4.8c0-0.4-0.4-0.8-0.8-0.8h-6.1l-7-12.2C77.3,56.7,76.7,56.3,76,56.3z M87.5,56.7
				c-0.2,0-0.4,0.1-0.5,0.3c-0.3,0.3-0.2,0.8,0.1,1.1c0.5,0.4,0.9,0.8,1.3,1.2c0.2,0.2,0.4,0.2,0.6,0.2c0.2,0,0.4-0.1,0.6-0.2
				c0.3-0.3,0.3-0.8,0-1.1c-0.5-0.5-1-0.9-1.5-1.4C87.9,56.8,87.7,56.7,87.5,56.7z M76,57.9c0.1,0,0.3,0.1,0.3,0.2l6.5,11.5l0.9,1.6
				l1.8,3.2l0.2,0.3c0.2,0.4,0.1,0.9-0.3,1.1L85,76l-1,0.5c-0.1,0.1-0.2,0.1-0.4,0.1c-0.3,0-0.6-0.2-0.7-0.5l0-0.1l-2-4.8l-0.7-1.6
				l-4.7-11.1C75.5,58.1,75.7,57.9,76,57.9z M74.2,64.6c0.1,0,0.2,0,0.3,0.1l1.6,0.9c0.3,0.2,0.4,0.5,0.2,0.8l-1.8,3.1l-0.4,0.7
				l-0.5,0.9l-1.4,2.5l-0.4,0.7L70.8,76l-1.6,2.9l-2.6-1.5l0.8-1.4l0.9-1.6l0.4-0.7l1.5-2.5l0.9-1.6l0.3-0.5l2.4-4.2
				C73.8,64.7,74,64.6,74.2,64.6z M77.6,67.4l0.9,2.2h-2.2L77.6,67.4z M62.6,71.2h5.6l-1,1.7l-0.8,1.5h-3.8V71.2z M75.4,71.2h3.8
				l1.3,3.2h-7L75.4,71.2z M85.6,71.2H90v3.2h-2.6c-0.1-0.2-0.1-0.3-0.2-0.5L85.6,71.2z M86.4,77.9c0.6,0,1.2,0.3,1.4,0.9
				c0.8,1.7,1,3.7,0.2,4.1c-1.2-2.4-2.3-1-3.1-2.7c-0.4-0.8-0.1-1.8,0.7-2.2C85.9,77.9,86.2,77.9,86.4,77.9z M65.8,78.7l2.6,1.5l0,0
				c-0.2,0.3-0.4,0.5-0.7,0.7L65.4,82l0.1-2.4c0-0.3,0.1-0.5,0.2-0.7L65.8,78.7z M68.6,85.9c-0.3,0-0.6,0.1-0.8,0.4L67,87.7
				c-0.2,0.4-0.1,0.9,0.3,1.1c0.1,0.1,0.3,0.1,0.4,0.1c0.3,0,0.5-0.1,0.7-0.4l0.8-1.4c0.2-0.4,0.1-0.9-0.3-1.1
				C68.8,86,68.7,86,68.6,85.9z M84,85.9c-0.1,0-0.2,0-0.3,0.1c-0.4,0.2-0.5,0.7-0.3,1.1l0.8,1.4c0.1,0.3,0.4,0.4,0.7,0.4
				c0.1,0,0.3,0,0.4-0.1c0.4-0.2,0.5-0.7,0.3-1.1l-0.8-1.4C84.7,86.1,84.3,85.9,84,85.9z M72.1,87.5c-0.3,0-0.6,0.3-0.7,0.6L71,89.7
				c-0.1,0.4,0.1,0.9,0.6,1c0.1,0,0.1,0,0.2,0c0.4,0,0.7-0.2,0.8-0.6l0.4-1.6c0.1-0.4-0.1-0.9-0.6-1C72.3,87.5,72.2,87.5,72.1,87.5z
				 M80.5,87.5c-0.1,0-0.2,0-0.3,0c-0.4,0.1-0.7,0.6-0.6,1l0.4,1.6c0.1,0.4,0.4,0.6,0.8,0.6c0.1,0,0.1,0,0.2,0
				c0.4-0.1,0.7-0.6,0.6-1l-0.4-1.6C81,87.8,80.8,87.6,80.5,87.5z M76.3,88c-0.4,0-0.8,0.4-0.8,0.8v1.6c0,0.4,0.4,0.8,0.8,0.8
				s0.8-0.4,0.8-0.8v-1.6C77.1,88.4,76.7,88,76.3,88z"/>
		</g>
	</g>
</g>
</svg>
