<?xml version="1.0" encoding="utf-8"?>
<!-- Generator: Adobe Illustrator 19.2.1, SVG Export Plug-In . SVG Version: 6.00 Build 0)  -->
<svg version="1.1" id="Layer_1" xmlns="http://www.w3.org/2000/svg" xmlns:xlink="http://www.w3.org/1999/xlink" x="0px" y="0px"
	 viewBox="0 0 150 150" style="enable-background:new 0 0 150 150;" xml:space="preserve">
<style type="text/css">
	.st0{fill:url(#SVGID_1_);}
	.st1{fill:url(#SVGID_2_);}
	.st2{fill:url(#SVGID_3_);}
	.st3{fill:url(#SVGID_4_);}
	.st4{fill:url(#SVGID_5_);}
	.st5{fill:url(#SVGID_6_);}
	.st6{fill:url(#SVGID_7_);}
	.st7{fill:url(#SVGID_8_);}
</style>
<g>
	<linearGradient id="SVGID_1_" gradientUnits="userSpaceOnUse" x1="109.3237" y1="89.1281" x2="121.8381" y2="76.6138">
		<stop  offset="0.3214" style="stop-color:#5E2D90"/>
		<stop  offset="0.4229" style="stop-color:#4F3D8C"/>
		<stop  offset="0.5594" style="stop-color:#3B4B8A"/>
		<stop  offset="0.6991" style="stop-color:#275388"/>
		<stop  offset="0.8425" style="stop-color:#145787"/>
		<stop  offset="0.9952" style="stop-color:#095987"/>
	</linearGradient>
	<path class="st0" d="M116.5,71.5c-0.5-0.5-1.5-0.5-2,0c-0.5,0.5-0.5,1.5,0,2l9.4,9.4l-9.4,9.4c-0.5,0.5-0.5,1.5,0,2s1.5,0.5,2,0
		l10.5-10.5c0.5-0.5,0.5-1.5,0-2L116.5,71.5z"/>
	<linearGradient id="SVGID_2_" gradientUnits="userSpaceOnUse" x1="28.0259" y1="89.2641" x2="40.5402" y2="76.7498">
		<stop  offset="0.3214" style="stop-color:#5E2D90"/>
		<stop  offset="0.4229" style="stop-color:#4F3D8C"/>
		<stop  offset="0.5594" style="stop-color:#3B4B8A"/>
		<stop  offset="0.6991" style="stop-color:#275388"/>
		<stop  offset="0.8425" style="stop-color:#145787"/>
		<stop  offset="0.9952" style="stop-color:#095987"/>
	</linearGradient>
	<path class="st1" d="M35.3,71.5c-0.5-0.5-1.5-0.5-2,0L22.8,82c-0.5,0.5-0.5,1.5,0,2l10.5,10.5c0.5,0.5,1.5,0.5,2,0
		c0.5-0.5,0.5-1.5,0-2l-9.4-9.4l9.4-9.4C35.8,72.9,35.8,72,35.3,71.5z"/>
	<linearGradient id="SVGID_3_" gradientUnits="userSpaceOnUse" x1="51.0461" y1="106.9031" x2="98.9636" y2="58.9856">
		<stop  offset="0.3214" style="stop-color:#5E2D90"/>
		<stop  offset="0.4229" style="stop-color:#4F3D8C"/>
		<stop  offset="0.5594" style="stop-color:#3B4B8A"/>
		<stop  offset="0.6991" style="stop-color:#275388"/>
		<stop  offset="0.8425" style="stop-color:#145787"/>
		<stop  offset="0.9952" style="stop-color:#095987"/>
	</linearGradient>
	<path class="st2" d="M103.1,63.7c-14.9-19.6-41.2-20.1-56.2,0l0,0c-8,11.6-8,26.8,0,38.4l0,0c21.4,28.5,62,12.3,62-19.2
		C108.9,75.8,106.7,69.1,103.1,63.7L103.1,63.7z M83.9,112.8c3.1-3.1,5.6-7.8,7.4-13.6c2.9,0.9,5.6,2.2,8,3.4
		C95.3,107.4,90.1,111,83.9,112.8z M52.9,105c-0.2-0.2-0.2-0.2-0.4-0.4c-0.5-0.5-1.3-1.3-1.8-2c2.2-1.5,4.9-2.5,8-3.4
		c1.6,5.8,4.2,10.5,7.4,13.6C61,111.4,56.5,108.5,52.9,105z M66.1,53c-3.1,3.1-5.6,7.8-7.4,13.6c-2.9-0.9-5.6-2.2-8-3.4
		C54.9,58.3,60.1,54.6,66.1,53z M73.5,51.7v17c-4.2-0.2-8.3-0.5-12.2-1.5C64.1,58.8,68.5,52.6,73.5,51.7z M73.5,71.5v10H59.2
		c0.2-4.2,0.5-8,1.5-11.6C64.8,70.9,69.2,71.5,73.5,71.5z M73.5,84.2v10c-4.5,0.2-8.9,0.7-12.9,1.6c-0.9-3.6-1.3-7.4-1.5-11.6H73.5z
		 M73.5,97.1v17c-5.1-0.9-9.6-7.1-12.2-15.6C65.2,97.6,69.4,97.1,73.5,97.1z M76.3,97.1c4.2,0.2,8.3,0.5,12.2,1.5
		c-2.5,8.5-7.1,14.5-12.2,15.6V97.1z M76.3,94.3v-10h14.3c-0.2,4.2-0.5,8-1.5,11.6C85.2,94.9,80.8,94.3,76.3,94.3z M76.3,81.5v-10
		c4.5-0.2,8.9-0.7,12.9-1.6c0.9,3.6,1.3,7.4,1.5,11.6H76.3z M76.3,68.8v-17c5.1,0.9,9.6,7.1,12.2,15.6
		C84.8,68.2,80.6,68.8,76.3,68.8z M58.1,69.1c-0.9,3.8-1.5,8-1.5,12.3H43.8c0.2-6,2.2-11.6,5.4-16.3C51.8,66.8,54.9,68.2,58.1,69.1z
		 M56.7,84.2c0,4.4,0.5,8.5,1.5,12.3c-3.3,1.1-6.3,2.4-8.9,4C46,95.8,44,90.2,43.8,84.2H56.7z M100.8,100.5c-2.5-1.6-5.6-2.9-8.9-4
		c0.9-3.8,1.5-8,1.5-12.3h12.9C106,90.4,104,96,100.8,100.5z M93.3,81.5c0-4.4-0.5-8.5-1.5-12.3c3.3-1.1,6.3-2.4,8.9-4
		c3.3,4.7,5.3,10.3,5.4,16.3H93.3z M91.1,66.6C89.5,60.8,87,56.1,83.7,53c6.2,1.8,11.4,5.3,15.4,10.2C96.9,64.4,94.2,65.7,91.1,66.6
		z"/>
	<linearGradient id="SVGID_4_" gradientUnits="userSpaceOnUse" x1="15.9681" y1="132.7746" x2="134.0319" y2="14.7107">
		<stop  offset="0.3214" style="stop-color:#5E2D90"/>
		<stop  offset="0.4229" style="stop-color:#4F3D8C"/>
		<stop  offset="0.5594" style="stop-color:#3B4B8A"/>
		<stop  offset="0.6991" style="stop-color:#275388"/>
		<stop  offset="0.8425" style="stop-color:#145787"/>
		<stop  offset="0.9952" style="stop-color:#095987"/>
	</linearGradient>
	<path class="st3" d="M133,14.4H17c-0.7,0-1.5,0.5-1.5,1.3v116.1c0,0.7,0.5,1.5,1.5,1.5H133c0.7,0,1.5-0.5,1.5-1.5V15.6
		C134.5,14.9,133.8,14.4,133,14.4z M131.8,17.1v17.6H18.2V17.1H131.8z M18.2,130.4v-93h113.4v93H18.2z"/>
	<linearGradient id="SVGID_5_" gradientUnits="userSpaceOnUse" x1="57.3051" y1="29.6967" x2="64.4016" y2="22.6001">
		<stop  offset="0.3214" style="stop-color:#5E2D90"/>
		<stop  offset="0.4229" style="stop-color:#4F3D8C"/>
		<stop  offset="0.5594" style="stop-color:#3B4B8A"/>
		<stop  offset="0.6991" style="stop-color:#275388"/>
		<stop  offset="0.8425" style="stop-color:#145787"/>
		<stop  offset="0.9952" style="stop-color:#095987"/>
	</linearGradient>
	<path class="st4" d="M60.9,31.2c2.7,0,4.9-2.2,4.9-5.1s-2.2-5.1-4.9-5.1c-2.7,0-4.9,2.2-4.9,5.1S58.1,31.2,60.9,31.2z M60.9,23.8
		c1.3,0,2.2,1.1,2.2,2.4c0,1.3-1.1,2.4-2.2,2.4c-1.3,0-2.2-1.1-2.2-2.4C58.7,24.9,59.6,23.8,60.9,23.8z"/>
	<linearGradient id="SVGID_6_" gradientUnits="userSpaceOnUse" x1="41.8889" y1="29.6967" x2="48.9854" y2="22.6001">
		<stop  offset="0.3214" style="stop-color:#5E2D90"/>
		<stop  offset="0.4229" style="stop-color:#4F3D8C"/>
		<stop  offset="0.5594" style="stop-color:#3B4B8A"/>
		<stop  offset="0.6991" style="stop-color:#275388"/>
		<stop  offset="0.8425" style="stop-color:#145787"/>
		<stop  offset="0.9952" style="stop-color:#095987"/>
	</linearGradient>
	<path class="st5" d="M45.4,31.2c2.7,0,4.9-2.2,4.9-5.1s-2.2-5.1-4.9-5.1c-2.7,0-4.9,2.2-4.9,5.1S42.7,31.2,45.4,31.2z M45.4,23.8
		c1.3,0,2.2,1.1,2.2,2.4c0,1.3-1.1,2.4-2.2,2.4s-2.2-1.1-2.2-2.4C43.3,24.9,44.2,23.8,45.4,23.8z"/>
	<linearGradient id="SVGID_7_" gradientUnits="userSpaceOnUse" x1="26.341" y1="29.6801" x2="33.4044" y2="22.6167">
		<stop  offset="0.3214" style="stop-color:#5E2D90"/>
		<stop  offset="0.4229" style="stop-color:#4F3D8C"/>
		<stop  offset="0.5594" style="stop-color:#3B4B8A"/>
		<stop  offset="0.6991" style="stop-color:#275388"/>
		<stop  offset="0.8425" style="stop-color:#145787"/>
		<stop  offset="0.9952" style="stop-color:#095987"/>
	</linearGradient>
	<path class="st6" d="M29.8,31.2c2.7,0,4.9-2.2,4.9-5.1s-2.2-5.1-4.9-5.1s-4.9,2.4-4.9,5.1S27.1,31.2,29.8,31.2z M29.8,23.8
		c1.3,0,2.2,1.1,2.2,2.4c0,1.3-0.9,2.4-2.2,2.4s-2.2-1.1-2.2-2.4C27.7,24.9,28.6,23.8,29.8,23.8z"/>
	<linearGradient id="SVGID_8_" gradientUnits="userSpaceOnUse" x1="84.7969" y1="39.7478" x2="112.1772" y2="12.3676">
		<stop  offset="0.3214" style="stop-color:#5E2D90"/>
		<stop  offset="0.4229" style="stop-color:#4F3D8C"/>
		<stop  offset="0.5594" style="stop-color:#3B4B8A"/>
		<stop  offset="0.6991" style="stop-color:#275388"/>
		<stop  offset="0.8425" style="stop-color:#145787"/>
		<stop  offset="0.9952" style="stop-color:#095987"/>
	</linearGradient>
	<path class="st7" d="M73.2,27.4h50.6c0.7,0,1.5-0.5,1.5-1.5s-0.7-1.3-1.5-1.3H73.2c-0.7,0-1.5,0.5-1.5,1.5S72.5,27.4,73.2,27.4z"/>
</g>
</svg>
