<?xml version="1.0" encoding="utf-8"?>
<!-- Generator: Adobe Illustrator 19.2.1, SVG Export Plug-In . SVG Version: 6.00 Build 0)  -->
<svg version="1.1" id="Layer_1" xmlns="http://www.w3.org/2000/svg" xmlns:xlink="http://www.w3.org/1999/xlink" x="0px" y="0px"
	 viewBox="0 0 150 150" style="enable-background:new 0 0 150 150;" xml:space="preserve">
<style type="text/css">
	.st0{fill:url(#SVGID_1_);}
	.st1{fill:url(#SVGID_2_);}
	.st2{fill:url(#SVGID_3_);}
	.st3{fill:url(#SVGID_4_);}
	.st4{fill:url(#SVGID_5_);}
	.st5{fill:url(#SVGID_6_);}
	.st6{fill:url(#SVGID_7_);}
	.st7{fill:url(#SVGID_8_);}
	.st8{fill:url(#SVGID_9_);}
	.st9{fill:url(#SVGID_10_);}
	.st10{fill:url(#SVGID_11_);}
	.st11{fill:url(#SVGID_12_);}
	.st12{fill:url(#SVGID_13_);}
</style>
<g>
	<linearGradient id="SVGID_1_" gradientUnits="userSpaceOnUse" x1="60.1326" y1="117.5475" x2="66.2417" y2="111.4384">
		<stop  offset="0.3214" style="stop-color:#5E2D90"/>
		<stop  offset="0.4229" style="stop-color:#4F3D8C"/>
		<stop  offset="0.5594" style="stop-color:#3B4B8A"/>
		<stop  offset="0.6991" style="stop-color:#275388"/>
		<stop  offset="0.8425" style="stop-color:#145787"/>
		<stop  offset="0.9952" style="stop-color:#095987"/>
	</linearGradient>
	<path class="st0" d="M63.2,110.2c-2.3,0-4.3,2-4.3,4.3c0,2.3,2,4.3,4.3,4.3c2.3,0,4.3-2,4.3-4.3C67.5,112.2,65.7,110.2,63.2,110.2z
		 M63.2,116.1c-0.9,0-1.6-0.7-1.6-1.6c0-0.9,0.7-1.6,1.6-1.6s1.6,0.7,1.6,1.6C64.8,115.4,64.1,116.1,63.2,116.1z"/>
	<linearGradient id="SVGID_2_" gradientUnits="userSpaceOnUse" x1="25.6401" y1="122.295" x2="116.1351" y2="31.8">
		<stop  offset="0.3214" style="stop-color:#5E2D90"/>
		<stop  offset="0.4229" style="stop-color:#4F3D8C"/>
		<stop  offset="0.5594" style="stop-color:#3B4B8A"/>
		<stop  offset="0.6991" style="stop-color:#275388"/>
		<stop  offset="0.8425" style="stop-color:#145787"/>
		<stop  offset="0.9952" style="stop-color:#095987"/>
	</linearGradient>
	<path class="st1" d="M118.4,75.8h-15.7V20.2c0-2.3-1.8-4.1-4.1-4.1H27.7c-2.3,0-4.1,1.8-4.1,4.1v98.3c0,2.3,1.8,4.1,4.1,4.1h58.1
		v7.7c0,2,1.6,3.6,3.6,3.6h29c2,0,3.6-1.6,3.6-3.6V79.4C122.2,77.4,120.6,75.8,118.4,75.8z M119.5,79.4v44.1h-31V79.4
		c0-0.5,0.4-0.9,0.9-0.9h29C119,78.5,119.5,78.9,119.5,79.4z M27.7,119.9c-0.7,0-1.4-0.5-1.4-1.4V20.2c0-0.7,0.5-1.4,1.4-1.4h71.1
		c0.7,0,1.4,0.5,1.4,1.4v55.6h-4.5V23.3h-65v85.7h55.1v11C85.9,119.9,27.7,119.9,27.7,119.9z M85.9,79.4v26.8H33.5V26h59.6v49.9
		h-3.6C87.5,75.8,85.9,77.4,85.9,79.4z M118.4,131.4h-29c-0.5,0-0.9-0.4-0.9-0.9v-4.1h31v4.1C119.5,130.9,119,131.4,118.4,131.4z"/>
	<linearGradient id="SVGID_3_" gradientUnits="userSpaceOnUse" x1="101.3751" y1="85.035" x2="106.6851" y2="79.725">
		<stop  offset="0.3214" style="stop-color:#5E2D90"/>
		<stop  offset="0.4229" style="stop-color:#4F3D8C"/>
		<stop  offset="0.5594" style="stop-color:#3B4B8A"/>
		<stop  offset="0.6991" style="stop-color:#275388"/>
		<stop  offset="0.8425" style="stop-color:#145787"/>
		<stop  offset="0.9952" style="stop-color:#095987"/>
	</linearGradient>
	<rect x="100.1" y="81" class="st2" width="7.9" height="2.7"/>
	<linearGradient id="SVGID_4_" gradientUnits="userSpaceOnUse" x1="93.6351" y1="109.695" x2="100.7451" y2="102.585">
		<stop  offset="0.3214" style="stop-color:#5E2D90"/>
		<stop  offset="0.4229" style="stop-color:#4F3D8C"/>
		<stop  offset="0.5594" style="stop-color:#3B4B8A"/>
		<stop  offset="0.6991" style="stop-color:#275388"/>
		<stop  offset="0.8425" style="stop-color:#145787"/>
		<stop  offset="0.9952" style="stop-color:#095987"/>
	</linearGradient>
	<rect x="91.4" y="104.8" class="st3" width="11.5" height="2.7"/>
	<linearGradient id="SVGID_5_" gradientUnits="userSpaceOnUse" x1="107.1351" y1="109.695" x2="114.2451" y2="102.585">
		<stop  offset="0.3214" style="stop-color:#5E2D90"/>
		<stop  offset="0.4229" style="stop-color:#4F3D8C"/>
		<stop  offset="0.5594" style="stop-color:#3B4B8A"/>
		<stop  offset="0.6991" style="stop-color:#275388"/>
		<stop  offset="0.8425" style="stop-color:#145787"/>
		<stop  offset="0.9952" style="stop-color:#095987"/>
	</linearGradient>
	<rect x="104.9" y="104.8" class="st4" width="11.5" height="2.7"/>
	<linearGradient id="SVGID_6_" gradientUnits="userSpaceOnUse" x1="100.4751" y1="118.065" x2="107.5851" y2="110.955">
		<stop  offset="0.3214" style="stop-color:#5E2D90"/>
		<stop  offset="0.4229" style="stop-color:#4F3D8C"/>
		<stop  offset="0.5594" style="stop-color:#3B4B8A"/>
		<stop  offset="0.6991" style="stop-color:#275388"/>
		<stop  offset="0.8425" style="stop-color:#145787"/>
		<stop  offset="0.9952" style="stop-color:#095987"/>
	</linearGradient>
	<rect x="98.3" y="113.2" class="st5" width="11.5" height="2.7"/>
	<linearGradient id="SVGID_7_" gradientUnits="userSpaceOnUse" x1="94.3551" y1="102.315" x2="113.3451" y2="83.325">
		<stop  offset="0.3214" style="stop-color:#5E2D90"/>
		<stop  offset="0.4229" style="stop-color:#4F3D8C"/>
		<stop  offset="0.5594" style="stop-color:#3B4B8A"/>
		<stop  offset="0.6991" style="stop-color:#275388"/>
		<stop  offset="0.8425" style="stop-color:#145787"/>
		<stop  offset="0.9952" style="stop-color:#095987"/>
	</linearGradient>
	<path class="st6" d="M116.5,86.4H91.3v12.8h25.2V86.4z M113.8,96.7H94v-7.4h19.8V96.7z"/>
	<linearGradient id="SVGID_8_" gradientUnits="userSpaceOnUse" x1="37.9701" y1="52.41" x2="59.4801" y2="30.9">
		<stop  offset="0.3214" style="stop-color:#5E2D90"/>
		<stop  offset="0.4229" style="stop-color:#4F3D8C"/>
		<stop  offset="0.5594" style="stop-color:#3B4B8A"/>
		<stop  offset="0.6991" style="stop-color:#275388"/>
		<stop  offset="0.8425" style="stop-color:#145787"/>
		<stop  offset="0.9952" style="stop-color:#095987"/>
	</linearGradient>
	<path class="st7" d="M59.6,31H38v21.4h21.4V31H59.6z M56.9,49.7h-16v-16h16V49.7z"/>
	<linearGradient id="SVGID_9_" gradientUnits="userSpaceOnUse" x1="42.6501" y1="68.97" x2="54.7101" y2="56.91">
		<stop  offset="0.3214" style="stop-color:#5E2D90"/>
		<stop  offset="0.4229" style="stop-color:#4F3D8C"/>
		<stop  offset="0.5594" style="stop-color:#3B4B8A"/>
		<stop  offset="0.6991" style="stop-color:#275388"/>
		<stop  offset="0.8425" style="stop-color:#145787"/>
		<stop  offset="0.9952" style="stop-color:#095987"/>
	</linearGradient>
	<rect x="38" y="61.6" class="st8" width="21.4" height="2.7"/>
	<linearGradient id="SVGID_10_" gradientUnits="userSpaceOnUse" x1="71.6301" y1="68.97" x2="83.6901" y2="56.91">
		<stop  offset="0.3214" style="stop-color:#5E2D90"/>
		<stop  offset="0.4229" style="stop-color:#4F3D8C"/>
		<stop  offset="0.5594" style="stop-color:#3B4B8A"/>
		<stop  offset="0.6991" style="stop-color:#275388"/>
		<stop  offset="0.8425" style="stop-color:#145787"/>
		<stop  offset="0.9952" style="stop-color:#095987"/>
	</linearGradient>
	<rect x="67" y="61.6" class="st9" width="21.4" height="2.7"/>
	<linearGradient id="SVGID_11_" gradientUnits="userSpaceOnUse" x1="47.9601" y1="87.24" x2="70.6401" y2="64.56">
		<stop  offset="0.3214" style="stop-color:#5E2D90"/>
		<stop  offset="0.4229" style="stop-color:#4F3D8C"/>
		<stop  offset="0.5594" style="stop-color:#3B4B8A"/>
		<stop  offset="0.6991" style="stop-color:#275388"/>
		<stop  offset="0.8425" style="stop-color:#145787"/>
		<stop  offset="0.9952" style="stop-color:#095987"/>
	</linearGradient>
	<rect x="38" y="74.6" class="st10" width="42.7" height="2.7"/>
	<linearGradient id="SVGID_12_" gradientUnits="userSpaceOnUse" x1="47.9601" y1="100.2" x2="70.6401" y2="77.52">
		<stop  offset="0.3214" style="stop-color:#5E2D90"/>
		<stop  offset="0.4229" style="stop-color:#4F3D8C"/>
		<stop  offset="0.5594" style="stop-color:#3B4B8A"/>
		<stop  offset="0.6991" style="stop-color:#275388"/>
		<stop  offset="0.8425" style="stop-color:#145787"/>
		<stop  offset="0.9952" style="stop-color:#095987"/>
	</linearGradient>
	<rect x="38" y="87.5" class="st11" width="42.7" height="2.7"/>
	<linearGradient id="SVGID_13_" gradientUnits="userSpaceOnUse" x1="66.9501" y1="52.41" x2="88.3701" y2="30.99">
		<stop  offset="0.3214" style="stop-color:#5E2D90"/>
		<stop  offset="0.4229" style="stop-color:#4F3D8C"/>
		<stop  offset="0.5594" style="stop-color:#3B4B8A"/>
		<stop  offset="0.6991" style="stop-color:#275388"/>
		<stop  offset="0.8425" style="stop-color:#145787"/>
		<stop  offset="0.9952" style="stop-color:#095987"/>
	</linearGradient>
	<path class="st12" d="M67,52.4h21.4V31H67V52.4z M69.7,33.7h16v16h-16C69.7,49.7,69.7,33.7,69.7,33.7z"/>
</g>
</svg>
