<svg width='200' height='200' fill="#000000" xmlns="http://www.w3.org/2000/svg" xmlns:xlink="http://www.w3.org/1999/xlink" version="1.1" x="0px" y="0px" viewBox="0 0 66 66" style="enable-background:new 0 0 66 66;" xml:space="preserve"><style type="text/css">
	.st0{fill:#000000;}
</style><g><path class="st0" d="M33,56.7C33,56.7,33,56.7,33,56.7c-1.8,0-3.2,1.5-3.2,3.2c0,1.8,1.4,3.2,3.2,3.2c0,0,0,0,0,0   c1.8,0,3.2-1.5,3.2-3.2C36.2,58.1,34.8,56.7,33,56.7z M34.7,59.9c0,0.9-0.7,1.7-1.7,1.7c0,0,0,0,0,0c-0.9,0-1.7-0.7-1.7-1.7   c0-0.9,0.7-1.7,1.7-1.7c0,0,0,0,0,0C33.9,58.2,34.7,58.9,34.7,59.9C34.7,59.9,34.7,59.9,34.7,59.9z"/><path class="st0" d="M30.1,35.2c-0.2-0.1-0.5-0.1-0.7,0.1c-0.3,0.3-0.2,0.8,0.2,1c1,0.4,2,0.6,3.1,0.7v1.1   c0,0.2,0.1,0.3,0.3,0.3c0.2,0,0.3-0.1,0.3-0.3V37c1.9-0.1,3.4-1.1,3.4-2.8c0-1.9-1.5-2.5-3.4-2.9v-3.5c0.7,0,1.5,0.1,2.2,0.4   c0.5,0.2,0.8-0.1,0.8-0.5c0-0.3-0.1-0.5-0.4-0.6c-0.8-0.3-1.7-0.5-2.6-0.5v-1.1c0-0.2-0.1-0.3-0.3-0.3c-0.2,0-0.3,0.1-0.3,0.3v1.1   c-2.3,0.1-3.4,1.4-3.4,3c0,1.9,1.6,2.4,3.4,2.9v3.3C31.7,35.8,30.9,35.6,30.1,35.2z M33.4,32.6c0.9,0.2,2.1,0.6,2.1,1.5   c0,1-0.7,1.6-2.1,1.7V32.6z M30.6,29.5c0-1.1,1-1.5,2.1-1.6v3.3C31.6,30.8,30.6,30.5,30.6,29.5z"/><path class="st0" d="M33,43.3c6.3,0,11.5-5.1,11.5-11.5S39.3,20.3,33,20.3s-11.5,5.1-11.5,11.5S26.7,43.3,33,43.3   z M33,21.8c5.5,0,10,4.5,10,10s-4.5,10-10,10s-10-4.5-10-10S27.5,21.8,33,21.8z"/><path class="st0" d="M51.5,0.3h-37c-1.7,0-3,1.3-3,3v59.5c0,1.7,1.3,3,3,3h37c1.7,0,3-1.3,3-3V3.3   C54.5,1.6,53.2,0.3,51.5,0.3z M53,62.8c0,0.8-0.7,1.5-1.5,1.5h-37c-0.8,0-1.5-0.7-1.5-1.5V3.3c0-0.8,0.7-1.5,1.5-1.5h37   c0.8,0,1.5,0.7,1.5,1.5V62.8z"/><path class="st0" d="M48.7,8.4H17.3c-0.4,0-0.8,0.3-0.8,0.8v45.3c0,0.4,0.3,0.8,0.8,0.8h31.3   c0.4,0,0.8-0.3,0.8-0.8V9.2C49.4,8.8,49.1,8.4,48.7,8.4z M47.9,53.7H18.1V9.9h29.8V53.7z"/><path class="st0" d="M27.3,6h1.5c0.4,0,0.8-0.3,0.8-0.8s-0.3-0.8-0.8-0.8h-1.5c-0.4,0-0.8,0.3-0.8,0.8   S26.9,6,27.3,6z"/><path class="st0" d="M31.4,6h7.3c0.4,0,0.8-0.3,0.8-0.8s-0.3-0.8-0.8-0.8h-7.3c-0.4,0-0.8,0.3-0.8,0.8   S31,6,31.4,6z"/></g></svg>