<svg fill="#000000" xmlns="http://www.w3.org/2000/svg" xmlns:xlink="http://www.w3.org/1999/xlink" version="1.1" x="0px" y="0px" viewBox="0 0 66 66" style="enable-background:new 0 0 66 66;" xml:space="preserve"><style type="text/css">
	.st0{fill:#000000;}
</style><g><path class="st0" d="M27.6,52.5c-1.3,0-2.4,1.1-2.4,2.4s1.1,2.4,2.4,2.4s2.4-1.1,2.4-2.4S29,52.5,27.6,52.5z    M27.6,55.8c-0.5,0-0.9-0.4-0.9-0.9s0.4-0.9,0.9-0.9s0.9,0.4,0.9,0.9S28.1,55.8,27.6,55.8z"/><path class="st0" d="M58.3,33.4h-8.7V2.5c0-1.3-1-2.3-2.3-2.3H7.9c-1.3,0-2.3,1-2.3,2.3v54.6c0,1.3,1,2.3,2.3,2.3   h32.3v4.3c0,1.1,0.9,2,2,2h16.1c1.1,0,2-0.9,2-2V35.4C60.4,34.3,59.5,33.4,58.3,33.4z M58.9,35.4v24.5H41.7V35.4   c0-0.3,0.2-0.5,0.5-0.5h16.1C58.6,34.9,58.9,35.1,58.9,35.4z M7.9,57.9c-0.4,0-0.8-0.3-0.8-0.8V2.5c0-0.4,0.3-0.8,0.8-0.8h39.5   c0.4,0,0.8,0.3,0.8,0.8v30.9h-2.5V4.2H9.6v47.6h30.6v6.1H7.9z M40.2,35.4v14.9H11.1V5.7h33.1v27.7h-2   C41.1,33.4,40.2,34.3,40.2,35.4z M58.3,64.3H42.2c-0.3,0-0.5-0.2-0.5-0.5v-2.3h17.2v2.3C58.9,64,58.6,64.3,58.3,64.3z"/><rect x="48.1" y="36.3" class="st0" width="4.4" height="1.5"/><rect x="43.3" y="48.5" class="st0" width="6.4" height="1.5"/><rect x="50.8" y="48.5" class="st0" width="6.4" height="1.5"/><rect x="43.3" y="52.4" class="st0" width="6.4" height="1.5"/><rect x="50.8" y="52.4" class="st0" width="6.4" height="1.5"/><rect x="43.3" y="56.3" class="st0" width="6.4" height="1.5"/><rect x="50.8" y="56.3" class="st0" width="6.4" height="1.5"/><path class="st0" d="M57.2,39.3h-14v7.1h14V39.3z M55.7,45h-11v-4.1h11V45z"/><path class="st0" d="M25.6,8.5H13.6v11.9h11.9V8.5z M24.1,18.9h-8.9V10h8.9V18.9z"/><rect x="13.6" y="25.5" class="st0" width="11.9" height="1.5"/><rect x="29.7" y="25.5" class="st0" width="11.9" height="1.5"/><rect x="13.6" y="32.7" class="st0" width="23.7" height="1.5"/><rect x="13.6" y="39.9" class="st0" width="23.7" height="1.5"/><path class="st0" d="M29.7,20.4h11.9V8.5H29.7V20.4z M31.2,10h8.9v8.9h-8.9V10z"/></g></svg>