<svg width='200' height='200' fill="#000000" xmlns="http://www.w3.org/2000/svg" xmlns:xlink="http://www.w3.org/1999/xlink" version="1.1" x="0px" y="0px" viewBox="0 0 66 66" style="enable-background:new 0 0 66 66;" xml:space="preserve"><style type="text/css">
	.st0{fill:#000000;}
	.st1{fill:none;stroke:#000000;stroke-width:1.5;stroke-miterlimit:10;}
</style><g><path class="st0" d="M55.9,31.8c-0.3-0.3-0.8-0.3-1.1,0s-0.3,0.8,0,1.1l5.2,5.2l-5.2,5.2c-0.3,0.3-0.3,0.8,0,1.1   c0.3,0.3,0.8,0.3,1.1,0l5.8-5.8c0.3-0.3,0.3-0.8,0-1.1L55.9,31.8z"/><path class="st0" d="M11.1,31.8c-0.3-0.3-0.8-0.3-1.1,0l-5.8,5.8c-0.3,0.3-0.3,0.8,0,1.1l5.8,5.8   c0.3,0.3,0.8,0.3,1.1,0c0.3-0.3,0.3-0.8,0-1.1l-5.2-5.2l5.2-5.2C11.4,32.6,11.4,32.1,11.1,31.8z"/><path class="st0" d="M48.5,27.5c-8.2-10.8-22.7-11.1-31,0l0,0c-4.4,6.4-4.4,14.8,0,21.2l0,0   c11.8,15.7,34.2,6.8,34.2-10.6C51.7,34.2,50.5,30.5,48.5,27.5L48.5,27.5z M37.9,54.6c1.7-1.7,3.1-4.3,4.1-7.5   c1.6,0.5,3.1,1.2,4.4,1.9C44.2,51.6,41.3,53.6,37.9,54.6z M20.8,50.3c-0.1-0.1-0.1-0.1-0.2-0.2c-0.3-0.3-0.7-0.7-1-1.1   c1.2-0.8,2.7-1.4,4.4-1.9c0.9,3.2,2.3,5.8,4.1,7.5C25.3,53.8,22.8,52.2,20.8,50.3z M28.1,21.6c-1.7,1.7-3.1,4.3-4.1,7.5   c-1.6-0.5-3.1-1.2-4.4-1.9C21.9,24.5,24.8,22.5,28.1,21.6z M32.2,20.9v9.4c-2.3-0.1-4.6-0.3-6.7-0.8C27,24.8,29.4,21.4,32.2,20.9z    M32.2,31.8v5.5h-7.9c0.1-2.3,0.3-4.4,0.8-6.4C27.4,31.5,29.8,31.8,32.2,31.8z M32.2,38.8v5.5c-2.5,0.1-4.9,0.4-7.1,0.9   c-0.5-2-0.7-4.1-0.8-6.4H32.2z M32.2,45.9v9.4c-2.8-0.5-5.3-3.9-6.7-8.6C27.6,46.2,29.9,45.9,32.2,45.9z M33.7,45.9   c2.3,0.1,4.6,0.3,6.7,0.8c-1.4,4.7-3.9,8-6.7,8.6V45.9z M33.7,44.4v-5.5h7.9c-0.1,2.3-0.3,4.4-0.8,6.4   C38.6,44.7,36.2,44.4,33.7,44.4z M33.7,37.3v-5.5c2.5-0.1,4.9-0.4,7.1-0.9c0.5,2,0.7,4.1,0.8,6.4H33.7z M33.7,30.3v-9.4   c2.8,0.5,5.3,3.9,6.7,8.6C38.4,30,36.1,30.3,33.7,30.3z M23.7,30.5c-0.5,2.1-0.8,4.4-0.8,6.8h-7.1c0.1-3.3,1.2-6.4,3-9   C20.2,29.2,21.9,30,23.7,30.5z M22.9,38.8c0,2.4,0.3,4.7,0.8,6.8c-1.8,0.6-3.5,1.3-4.9,2.2c-1.8-2.6-2.9-5.7-3-9H22.9z M47.2,47.8   c-1.4-0.9-3.1-1.6-4.9-2.2c0.5-2.1,0.8-4.4,0.8-6.8h7.1C50.1,42.2,49,45.3,47.2,47.8z M43.1,37.3c0-2.4-0.3-4.7-0.8-6.8   c1.8-0.6,3.5-1.3,4.9-2.2c1.8,2.6,2.9,5.7,3,9H43.1z M41.9,29.1c-0.9-3.2-2.3-5.8-4.1-7.5c3.4,1,6.3,2.9,8.5,5.6   C45.1,27.9,43.6,28.6,41.9,29.1z"/><path class="st0" d="M65,0.3H1C0.6,0.3,0.2,0.6,0.2,1v64c0,0.4,0.3,0.8,0.8,0.8h64c0.4,0,0.8-0.3,0.8-0.8V1   C65.8,0.6,65.4,0.3,65,0.3z M64.3,1.8v9.7H1.7V1.8H64.3z M1.7,64.3V13h62.5v51.3H1.7z"/><path class="st0" d="M25.2,9.6c1.5,0,2.7-1.2,2.7-2.8S26.7,4,25.2,4c-1.5,0-2.7,1.2-2.7,2.8S23.7,9.6,25.2,9.6z    M25.2,5.5c0.7,0,1.2,0.6,1.2,1.3s-0.6,1.3-1.2,1.3c-0.7,0-1.2-0.6-1.2-1.3S24.5,5.5,25.2,5.5z"/><path class="st0" d="M16.7,9.6c1.5,0,2.7-1.2,2.7-2.8S18.2,4,16.7,4s-2.7,1.2-2.7,2.8S15.2,9.6,16.7,9.6z    M16.7,5.5c0.7,0,1.2,0.6,1.2,1.3s-0.6,1.3-1.2,1.3s-1.2-0.6-1.2-1.3S16,5.5,16.7,5.5z"/><path class="st0" d="M8.1,9.6c1.5,0,2.7-1.2,2.7-2.8S9.6,4,8.1,4C6.6,4,5.4,5.3,5.4,6.8S6.6,9.6,8.1,9.6z    M8.1,5.5c0.7,0,1.2,0.6,1.2,1.3S8.8,8.1,8.1,8.1c-0.7,0-1.2-0.6-1.2-1.3S7.4,5.5,8.1,5.5z"/><path class="st0" d="M32,7.5h27.9c0.4,0,0.8-0.3,0.8-0.8S60.3,6,59.9,6H32c-0.4,0-0.8,0.3-0.8,0.8   S31.6,7.5,32,7.5z"/></g></svg>