<svg id="Layer_1" data-name="Layer 1" xmlns="http://www.w3.org/2000/svg" xmlns:xlink="http://www.w3.org/1999/xlink" viewBox="0 0 54.71 65.5"><defs><style>.cls-1{fill:url(#linear-gradient);}.cls-2{fill:url(#linear-gradient-2);}.cls-3{fill:url(#linear-gradient-3);}.cls-4{fill:url(#linear-gradient-4);}.cls-5{fill:url(#linear-gradient-5);}.cls-6{fill:url(#linear-gradient-6);}.cls-7{fill:url(#linear-gradient-7);}.cls-8{fill:url(#linear-gradient-8);}.cls-9{fill:url(#linear-gradient-9);}.cls-10{fill:url(#linear-gradient-10);}.cls-11{fill:url(#linear-gradient-11);}.cls-12{fill:url(#linear-gradient-12);}.cls-13{fill:url(#linear-gradient-13);}</style><linearGradient id="linear-gradient" x1="73.41" y1="101.97" x2="75.81" y2="97.81" gradientUnits="userSpaceOnUse"><stop offset="0.32" stop-color="#5e2d90"/><stop offset="0.42" stop-color="#463a8d"/><stop offset="0.56" stop-color="#2b478b"/><stop offset="0.7" stop-color="#185189"/><stop offset="0.84" stop-color="#0d5787"/><stop offset="1" stop-color="#095987"/></linearGradient><linearGradient id="linear-gradient-2" x1="62.12" y1="108.94" x2="97.92" y2="46.92" xlink:href="#linear-gradient"/><linearGradient id="linear-gradient-3" x1="43.83" y1="38.37" x2="45.57" y2="35.33" xlink:href="#linear-gradient"/><linearGradient id="linear-gradient-4" x1="39.78" y1="52" x2="42.02" y2="48.1" xlink:href="#linear-gradient"/><linearGradient id="linear-gradient-5" x1="47.28" y1="52" x2="49.52" y2="48.1" xlink:href="#linear-gradient"/><linearGradient id="linear-gradient-6" x1="43.58" y1="56.65" x2="45.82" y2="52.75" xlink:href="#linear-gradient"/><linearGradient id="linear-gradient-7" x1="93.91" y1="93.54" x2="100.49" y2="82.16" xlink:href="#linear-gradient"/><linearGradient id="linear-gradient-8" x1="62.49" y1="66.49" x2="70.64" y2="52.37" xlink:href="#linear-gradient"/><linearGradient id="linear-gradient-9" x1="12.14" y1="29.19" x2="15.76" y2="22.91" xlink:href="#linear-gradient"/><linearGradient id="linear-gradient-10" x1="28.24" y1="29.19" x2="31.86" y2="22.91" xlink:href="#linear-gradient"/><linearGradient id="linear-gradient-11" x1="16.56" y1="38.94" x2="23.14" y2="27.56" xlink:href="#linear-gradient"/><linearGradient id="linear-gradient-12" x1="16.56" y1="46.14" x2="23.14" y2="34.76" xlink:href="#linear-gradient"/><linearGradient id="linear-gradient-13" x1="78.59" y1="66.49" x2="86.71" y2="52.41" xlink:href="#linear-gradient"/></defs><title>web-app</title><path class="cls-1" d="M74.6,97.5A2.4,2.4,0,1,0,77,99.9,2.37,2.37,0,0,0,74.6,97.5Zm0,3.3a0.9,0.9,0,1,1,.9-0.9A0.9,0.9,0,0,1,74.6,100.8Z" transform="translate(-52.6 -45.2)"/><path class="cls-2" d="M105.3,78.4H96.6V47.5a2.26,2.26,0,0,0-2.3-2.3H54.9a2.26,2.26,0,0,0-2.3,2.3v54.6a2.26,2.26,0,0,0,2.3,2.3H87.2v4.3a2,2,0,0,0,2,2h16.1a2,2,0,0,0,2-2V80.4A1.89,1.89,0,0,0,105.3,78.4Zm0.6,2v24.5H88.7V80.4a0.47,0.47,0,0,1,.5-0.5h16.1A0.56,0.56,0,0,1,105.9,80.4Zm-51,22.5a0.79,0.79,0,0,1-.8-0.8V47.5a0.79,0.79,0,0,1,.8-0.8H94.4a0.79,0.79,0,0,1,.8.8V78.4H92.7V49.2H56.6V96.8H87.2v6.1H54.9ZM87.2,80.4V95.3H58.1V50.7H91.2V78.4h-2A2,2,0,0,0,87.2,80.4Zm18.1,28.9H89.2a0.47,0.47,0,0,1-.5-0.5v-2.3h17.2v2.3A0.65,0.65,0,0,1,105.3,109.3Z" transform="translate(-52.6 -45.2)"/><rect class="cls-3" x="42.5" y="36.1" width="4.4" height="1.5"/><rect class="cls-4" x="37.7" y="49.3" width="6.4" height="1.5"/><rect class="cls-5" x="45.2" y="49.3" width="6.4" height="1.5"/><rect class="cls-6" x="41.5" y="53.95" width="6.4" height="1.5"/><path class="cls-7" d="M104.2,84.3h-14v7.1h14V84.3ZM102.7,90h-11V85.9h11V90Z" transform="translate(-52.6 -45.2)"/><path class="cls-8" d="M72.6,53.5h-12V65.4H72.5V53.5h0.1ZM71.1,63.9H62.2V55h8.9v8.9Z" transform="translate(-52.6 -45.2)"/><rect class="cls-9" x="8" y="25.3" width="11.9" height="1.5"/><rect class="cls-10" x="24.1" y="25.3" width="11.9" height="1.5"/><rect class="cls-11" x="8" y="32.5" width="23.7" height="1.5"/><rect class="cls-12" x="8" y="39.7" width="23.7" height="1.5"/><path class="cls-13" d="M76.7,65.4H88.6V53.5H76.7V65.4ZM78.2,55h8.9v8.9H78.2V55Z" transform="translate(-52.6 -45.2)"/></svg>