<?xml version="1.0" encoding="utf-8"?>
<!-- Generator: Adobe Illustrator 19.2.1, SVG Export Plug-In . SVG Version: 6.00 Build 0)  -->
<svg version="1.1" id="Layer_1" xmlns="http://www.w3.org/2000/svg" xmlns:xlink="http://www.w3.org/1999/xlink" x="0px" y="0px"
	 viewBox="0 0 200 200" style="enable-background:new 0 0 200 200;" xml:space="preserve">
<style type="text/css">
	.st0{fill:url(#SVGID_1_);}
	.st1{fill:url(#SVGID_2_);}
	.st2{fill:url(#SVGID_3_);}
	.st3{fill:url(#SVGID_4_);}
	.st4{fill:url(#SVGID_5_);}
	.st5{fill:url(#SVGID_6_);}
	.st6{fill:url(#SVGID_7_);}
	.st7{fill:url(#SVGID_8_);}
</style>
<linearGradient id="SVGID_1_" gradientUnits="userSpaceOnUse" x1="83.351" y1="-0.7401" x2="120.4227" y2="63.47">
	<stop  offset="0" style="stop-color:#5E009F"/>
	<stop  offset="1" style="stop-color:#095886"/>
</linearGradient>
<path class="st0" d="M131.3,26.5c-1-0.4-2.1-0.7-3.2-0.9V6.1c0-1.5-1.2-2.7-2.7-2.7H77c-1.5,0-2.7,1.2-2.7,2.7v34.7
	c0,0.4,0.1,0.8,0.2,1.1h-4.2c-0.2,0-0.5,0.1-0.6,0.3c-0.2,0.2-0.2,0.4-0.2,0.7l1,5.5c0.1,0.4,0.4,0.7,0.8,0.7h39
	c2.7,5.4,8.3,9.2,14.7,9.2c9.1,0,16.4-7.4,16.4-16.4C141.6,35,137.5,29.1,131.3,26.5z M75.9,6.1C75.9,5.5,76.4,5,77,5h48.3
	c0.6,0,1.1,0.5,1.1,1.1v19.3c-0.4,0-0.9-0.1-1.3-0.1c-8.3,0-15.3,6.2-16.3,14.4c-0.1,0.7-0.1,1.4-0.1,2c0,0,0,0.1,0,0.1H77
	c-0.6,0-1.1-0.5-1.1-1.1L75.9,6.1L75.9,6.1z M72,47.4l-0.7-3.9h37.4c0.1,1.3,0.5,2.6,0.9,3.9H72z M125.1,56.6
	c-8.2,0-14.8-6.6-14.8-14.8c0-0.6,0-1.2,0.1-1.8c0.9-7.4,7.2-13,14.7-13c1.9,0,3.8,0.4,5.5,1.1c5.6,2.3,9.3,7.7,9.3,13.7
	C139.9,49.9,133.3,56.6,125.1,56.6z M101.2,8.8c0.7,0,1.2-0.5,1.2-1.2s-0.5-1.2-1.2-1.2c-0.7,0-1.2,0.5-1.2,1.2
	C100,8.2,100.5,8.8,101.2,8.8z M106.2,44.6H96.1c-0.4,0-0.8,0.4-0.8,0.8c0,0.4,0.4,0.8,0.8,0.8h10.1c0.4,0,0.8-0.4,0.8-0.8
	C107,45,106.7,44.6,106.2,44.6z M127.3,34.8c-0.4-0.2-0.9,0-1,0.5l-4.4,11.5c-0.2,0.4,0,0.9,0.5,1c0.1,0,0.2,0.1,0.3,0.1
	c0.3,0,0.6-0.2,0.8-0.5l4.4-11.5C127.9,35.4,127.7,34.9,127.3,34.8z M120.5,34.9c-0.3-0.3-0.8-0.3-1.1,0l-5.5,5.8
	c-0.3,0.3-0.3,0.8,0,1.1l5.5,5.8c0.2,0.2,0.4,0.3,0.6,0.3c0.2,0,0.4-0.1,0.6-0.2c0.3-0.3,0.3-0.8,0-1.1l-5-5.3l5-5.3
	C120.8,35.7,120.8,35.2,120.5,34.9z M135.7,40.7l-5.5-5.8c-0.3-0.3-0.8-0.3-1.1,0c-0.3,0.3-0.3,0.8,0,1.1l5,5.3l-5,5.3
	c-0.3,0.3-0.3,0.8,0,1.1c0.2,0.1,0.4,0.2,0.6,0.2c0.2,0,0.4-0.1,0.6-0.3l5.5-5.8C136,41.5,136,41,135.7,40.7z"/>
<g>
	<g>
		<linearGradient id="SVGID_2_" gradientUnits="userSpaceOnUse" x1="165.045" y1="99.2455" x2="171.8195" y2="99.2455">
			<stop  offset="0" style="stop-color:#5E009F"/>
			<stop  offset="1" style="stop-color:#095886"/>
		</linearGradient>
		<path class="st1" d="M169.8,101.2l-0.3-0.3l1.7-1.7l-1.7-1.7l0.3-0.3l2,2L169.8,101.2z M167,101.2l-2-2l2-2l0.3,0.3l-1.7,1.7
			l1.7,1.7L167,101.2z"/>
	</g>
	<g>
		<g>
			<linearGradient id="SVGID_3_" gradientUnits="userSpaceOnUse" x1="165.2251" y1="92.1324" x2="165.2251" y2="92.1324">
				<stop  offset="0" style="stop-color:#5E009F"/>
				<stop  offset="1" style="stop-color:#095886"/>
			</linearGradient>
			<path class="st2" d="M165.2,92.1"/>
		</g>
		<g>
			<linearGradient id="SVGID_4_" gradientUnits="userSpaceOnUse" x1="160.4752" y1="95.9861" x2="165.652" y2="95.9861">
				<stop  offset="0" style="stop-color:#5E009F"/>
				<stop  offset="1" style="stop-color:#095886"/>
			</linearGradient>
			<path class="st3" d="M160.8,102l-0.4-0.2l4-8.7l-2.7-1.3l0.7-1.5c0.1-0.2,0.2-0.3,0.4-0.4c0.2-0.1,0.4-0.1,0.6,0l1.7,0.8
				c0.4,0.2,0.5,0.6,0.4,1l-0.1,0.2l-0.4-0.2l0.1-0.2c0.1-0.2,0-0.4-0.2-0.5l-1.7-0.8c-0.1,0-0.2,0-0.3,0c-0.1,0-0.2,0.1-0.2,0.2
				l-0.5,1.2L165,93L160.8,102z"/>
		</g>
		<g>
			<linearGradient id="SVGID_5_" gradientUnits="userSpaceOnUse" x1="156.6679" y1="99.0135" x2="161.7027" y2="99.0135">
				<stop  offset="0" style="stop-color:#5E009F"/>
				<stop  offset="1" style="stop-color:#095886"/>
			</linearGradient>
			<polygon class="st4" points="157.5,105.2 156.7,102.9 156.7,102.8 161.3,92.9 161.7,93 157.1,102.9 157.7,104.6 159.5,104 
				159.8,103.2 158.5,102.6 158.6,102.2 160.4,103 159.8,104.3 			"/>
		</g>
		<g>
			<linearGradient id="SVGID_6_" gradientUnits="userSpaceOnUse" x1="161.3002" y1="99.2454" x2="176.9517" y2="99.2454">
				<stop  offset="0" style="stop-color:#5E009F"/>
				<stop  offset="1" style="stop-color:#095886"/>
			</linearGradient>
			<path class="st5" d="M177,104h-15.7v-0.4h15.3v-7.4c0-0.7-0.6-1.3-1.3-1.3h-9.6v-0.4h9.6c0.9,0,1.7,0.8,1.7,1.7V104L177,104z"/>
		</g>
		<g>
			<linearGradient id="SVGID_7_" gradientUnits="userSpaceOnUse" x1="159.9246" y1="107.5431" x2="176.9517" y2="107.5431">
				<stop  offset="0" style="stop-color:#5E009F"/>
				<stop  offset="1" style="stop-color:#095886"/>
			</linearGradient>
			<path class="st6" d="M171.7,110h-6.4v-1l1.3-2h-4.9c-0.9,0-1.6-0.6-1.7-1.5l0.4,0c0.1,0.7,0.6,1.2,1.3,1.2h5.7l-1.7,2.5v0.5h5.7
				v-0.5l-1.7-2.5h5.7c0.7,0,1.3-0.6,1.3-1.3v-0.2h0.4v0.2c0,0.9-0.8,1.7-1.7,1.7h-4.9l1.3,2V110z"/>
		</g>
	</g>
	<g>
		<linearGradient id="SVGID_8_" gradientUnits="userSpaceOnUse" x1="159.9507" y1="97.1042" x2="162.6451" y2="97.1042">
			<stop  offset="0" style="stop-color:#5E009F"/>
			<stop  offset="1" style="stop-color:#095886"/>
		</linearGradient>
		<polygon class="st7" points="162.3,94.5 162.6,94.7 160.3,99.7 160,99.5 		"/>
	</g>
</g>
</svg>
