<?xml version="1.0" encoding="utf-8"?>
<!-- Generator: Adobe Illustrator 19.2.1, SVG Export Plug-In . SVG Version: 6.00 Build 0)  -->
<svg version="1.1" id="Layer_1" xmlns="http://www.w3.org/2000/svg" xmlns:xlink="http://www.w3.org/1999/xlink" x="0px" y="0px"
	 viewBox="0 0 500 400" style="enable-background:new 0 0 500 400;" xml:space="preserve">
<style type="text/css">
	.st0{fill-rule:evenodd;clip-rule:evenodd;fill:#FFFFFF;}
</style>
<path class="st0" d="M221.6,165.4c0-7.1,10.8-7.1,10.8,0C232.4,172.5,221.6,172.5,221.6,165.4L221.6,165.4z M263.5,135.6
	c0,7.1-10.8,7.1-10.8,0C252.7,128.5,263.5,128.5,263.5,135.6z M294.6,187.8c0,7.1-10.8,7.1-10.8,0
	C283.8,180.7,294.6,180.7,294.6,187.8z M258.1,120.4c-16.6,0-21.1,22.9-5.8,29.3V209l-19.4-19.4v-10.1c15.2-6.3,10.7-29.3-5.8-29.3
	c-16.6,0-21.1,22.9-5.8,29.3v14.9l31.1,31.1v36.2c0,5-0.6,11.8,6.8,11.8c50.5,0,91.5-41,91.5-91.5c0-50.5-40.9-91.5-91.5-91.5
	c-49.8,0-90.3,39.8-91.4,89.4c-8,12.2-21.4,26.7-17.3,36.5c2.8,6.7,10.6,8.4,24.9,8.4l-0.7,19.3h0c0,24.2,5.1,41.9,36.3,41.9
	c7.6,0,8.9,5.1,8.7,16.4c-0.1,9,13.5,9.2,13.6,0.2c0.3-18-2.6-30.3-22.4-30.3c-19.5,0-22.6-11.9-22.6-28.2h0
	c0-8.9,0.6-16.8,0.8-25.9l0,0c0.1-3.8-2.9-6.9-6.7-7l-10.5-0.1c-5.9,0-10.7,1.1-2.7-10.1c2.5-3.5,5.2-7.1,6.9-9.6
	c2.1-3,5.1-6.6,5.1-9.6c0-42.9,34.8-77.8,77.8-77.8c43,0,77.8,34.8,77.8,77.8c0,41.3-32.2,75.1-72.8,77.6v-10.9l31.1-31.1v-15.9
	c15.2-6.3,10.7-29.3-5.8-29.3c-16.6,0-21.1,22.9-5.8,29.3v11l-19.4,19.4v-82.6C279.2,143.3,274.7,120.4,258.1,120.4z"/>
</svg>
