<?xml version="1.0" encoding="utf-8"?>
<!-- Generator: Adobe Illustrator 19.2.1, SVG Export Plug-In . SVG Version: 6.00 Build 0)  -->
<svg version="1.1" id="Layer_1" xmlns="http://www.w3.org/2000/svg" xmlns:xlink="http://www.w3.org/1999/xlink" x="0px" y="0px"
	 viewBox="0 0 150 150" style="enable-background:new 0 0 150 150;" xml:space="preserve">
<style type="text/css">
	.st0{fill:url(#SVGID_1_);}
	.st1{fill:url(#SVGID_2_);}
	.st2{fill:url(#SVGID_3_);}
	.st3{fill:url(#SVGID_4_);}
	.st4{fill:url(#SVGID_5_);}
	.st5{fill:url(#SVGID_6_);}
	.st6{fill:url(#SVGID_7_);}
</style>
<g>
	<g>
		<linearGradient id="SVGID_1_" gradientUnits="userSpaceOnUse" x1="75.1611" y1="69.4443" x2="89.1675" y2="69.4443">
			<stop  offset="0" style="stop-color:#5F2D90"/>
			<stop  offset="1" style="stop-color:#0E5987"/>
		</linearGradient>
		<path class="st0" d="M85,73.6L84.4,73l3.6-3.6l-3.6-3.6l0.6-0.6l4.1,4.1L85,73.6z M79.3,73.6l-4.1-4.1l4.1-4.1l0.6,0.6l-3.6,3.6
			l3.6,3.6L79.3,73.6z"/>
	</g>
	<g>
		<g>
			<linearGradient id="SVGID_2_" gradientUnits="userSpaceOnUse" x1="75.5334" y1="54.7378" x2="75.5334" y2="54.7378">
				<stop  offset="0" style="stop-color:#5F2D90"/>
				<stop  offset="1" style="stop-color:#0E5987"/>
			</linearGradient>
			<path class="st1" d="M75.5,54.7"/>
		</g>
		<g>
			<linearGradient id="SVGID_3_" gradientUnits="userSpaceOnUse" x1="65.7128" y1="62.7054" x2="76.4161" y2="62.7054">
				<stop  offset="0" style="stop-color:#5F2D90"/>
				<stop  offset="1" style="stop-color:#0E5987"/>
			</linearGradient>
			<path class="st2" d="M66.5,75.2l-0.7-0.3L74,56.9l-5.6-2.6l1.5-3.1c0.2-0.4,0.5-0.7,0.9-0.8c0.4-0.1,0.8-0.1,1.2,0.1l3.5,1.6
				c0.8,0.4,1.1,1.3,0.8,2.1l-0.2,0.4l-0.7-0.3l0.2-0.4c0.2-0.4,0-0.8-0.4-1l-3.5-1.6c-0.2-0.1-0.4-0.1-0.6,0
				c-0.2,0.1-0.3,0.2-0.4,0.4l-1.1,2.4l5.6,2.6L66.5,75.2z"/>
		</g>
		<g>
			<linearGradient id="SVGID_4_" gradientUnits="userSpaceOnUse" x1="57.841" y1="68.9648" x2="68.2506" y2="68.9648">
				<stop  offset="0" style="stop-color:#5F2D90"/>
				<stop  offset="1" style="stop-color:#0E5987"/>
			</linearGradient>
			<polygon class="st3" points="59.5,81.7 57.8,77 57.9,76.8 67.5,56.3 68.3,56.6 58.7,77 60,80.6 63.6,79.3 64.4,77.6 61.5,76.3 
				61.9,75.5 65.5,77.2 64.2,80 			"/>
		</g>
		<g>
			<linearGradient id="SVGID_5_" gradientUnits="userSpaceOnUse" x1="67.4186" y1="69.4441" x2="99.7785" y2="69.4441">
				<stop  offset="0" style="stop-color:#5F2D90"/>
				<stop  offset="1" style="stop-color:#0E5987"/>
			</linearGradient>
			<path class="st4" d="M99.8,79.2H67.4v-0.8H99V63.2c0-1.5-1.2-2.7-2.7-2.7H76.3v-0.8h19.9c2,0,3.5,1.6,3.5,3.5V79.2L99.8,79.2z"/>
		</g>
		<g>
			<linearGradient id="SVGID_6_" gradientUnits="userSpaceOnUse" x1="64.5744" y1="86.5999" x2="99.7787" y2="86.5999">
				<stop  offset="0" style="stop-color:#5F2D90"/>
				<stop  offset="1" style="stop-color:#0E5987"/>
			</linearGradient>
			<path class="st5" d="M88.8,91.8H75.5v-2.1l2.8-4.2H68.1c-1.8,0-3.3-1.3-3.5-3.1l0.8-0.1c0.2,1.4,1.3,2.4,2.7,2.4h11.7l-3.5,5.2v1
				H88v-1l-3.5-5.2h11.7c1.5,0,2.7-1.2,2.7-2.7v-0.5h0.8V82c0,2-1.6,3.5-3.5,3.5H86.1l2.8,4.2V91.8z"/>
		</g>
	</g>
	<g>
		<linearGradient id="SVGID_7_" gradientUnits="userSpaceOnUse" x1="64.6283" y1="65.0171" x2="70.1991" y2="65.0171">
			<stop  offset="0" style="stop-color:#5F2D90"/>
			<stop  offset="1" style="stop-color:#0E5987"/>
		</linearGradient>
		<polygon class="st6" points="69.5,59.7 70.2,60 65.4,70.4 64.6,70 		"/>
	</g>
</g>
</svg>
